<?xml version="1.0" encoding="utf-8"?>
<svg xmlns="http://www.w3.org/2000/svg" version="1.1" viewBox="40.32 39.312 172.872 172.872" style="max-height: 500px" width="172.872" height="172.872">
  <path transform="translate(60.73576354980469,39.846099853515625)" fill="#080907" d="M0 0 C1.79368011 -0.0129007 1.79368011 -0.0129007 3.62359619 -0.02606201 C5.59429832 -0.03245193 5.59429832 -0.03245193 7.60481262 -0.03897095 C9.00112613 -0.04687388 10.39743761 -0.05514296 11.79374695 -0.06375122 C16.38154658 -0.08995242 20.96935524 -0.10527842 25.5572052 -0.11953735 C27.13793252 -0.12489809 28.71865978 -0.13027561 30.29938698 -0.13566971 C36.87651243 -0.15729696 43.45363546 -0.17603227 50.03078747 -0.1872921 C59.44862388 -0.20352231 68.86604715 -0.23667894 78.28372782 -0.29369295 C84.90976086 -0.33243494 91.5356836 -0.35192989 98.16182691 -0.35721266 C102.11709746 -0.36086075 106.07192716 -0.37282324 110.02707481 -0.4053154 C113.75120267 -0.43547104 117.4746247 -0.44168176 121.19884872 -0.42993164 C123.20837782 -0.42960698 125.21786385 -0.45402344 127.22723389 -0.47930908 C135.54047063 -0.42215203 140.87288933 0.75599231 146.81091595 6.7028904 C150.64641413 11.04908929 151.38781453 14.27272109 151.42486572 19.92089844 C151.43993416 21.72503204 151.43993416 21.72503204 151.45530701 23.56561279 C151.46133703 24.90054259 151.46722204 26.23547304 151.47297668 27.57040405 C151.48251666 28.97494744 151.49240788 30.37948847 151.50262451 31.7840271 C151.53399957 36.39947728 151.55427834 41.01494542 151.5728302 45.63046265 C151.57612752 46.41637268 151.57942484 47.20228271 151.58282208 48.01200819 C151.6136076 55.42791908 151.64030806 62.8438341 151.65724087 70.25979042 C151.67913168 79.735253 151.72106907 89.21014781 151.79067844 98.68538344 C151.83799235 105.35304208 151.8621844 112.02054795 151.86943775 118.68836915 C151.8743838 122.66779139 151.88936292 126.64657358 151.92918205 130.62581253 C151.96619253 134.3738271 151.97441197 138.12083996 151.96117592 141.8690033 C151.96125512 143.88910886 151.99101391 145.90914615 152.02186584 147.92901611 C151.95850153 155.90205674 150.93845996 161.3235789 145.26423645 167.15390015 C139.00279778 172.44592024 132.03892847 171.72168978 124.16242981 171.67147827 C122.73271982 171.67690434 121.30301542 171.68402971 119.87332153 171.69271851 C116.00554748 171.71089589 112.13820198 171.70390816 108.27042079 171.69120216 C104.21598486 171.68104734 100.16158465 171.69047454 96.10714722 171.69674683 C89.3006382 171.7040152 82.49430304 171.69445602 75.68782043 171.67538452 C67.82544882 171.65360848 59.96349203 171.66067553 52.10113043 171.68269014 C45.34167974 171.70085688 38.58235374 171.70339653 31.82288653 171.69293547 C27.78961009 171.68670862 23.75652851 171.68584267 19.72326469 171.69908142 C15.93179261 171.7106583 12.14085421 171.70258132 8.34943962 171.67950439 C6.96032598 171.6742274 5.57116722 171.67571387 4.18207169 171.68455505 C-8.7746628 171.75940209 -8.7746628 171.75940209 -13.73576355 167.15390015 C-18.14013062 162.78091812 -19.85733715 159.59951294 -19.8896637 153.42449951 C-19.89826416 152.20484497 -19.90686462 150.98519043 -19.91572571 149.72857666 C-19.92016113 148.36953778 -19.92445947 147.01049845 -19.92863464 145.65145874 C-19.93653504 144.22573649 -19.94480395 142.80001623 -19.95341492 141.3742981 C-19.97965017 136.68366408 -19.99494761 131.99302108 -20.00920105 127.30233765 C-20.01456079 125.68725199 -20.0199383 124.07216638 -20.0253334 122.45708084 C-20.04696752 115.73673717 -20.06570255 109.01639592 -20.0769558 102.29602623 C-20.09318244 92.66891016 -20.12632252 83.04219853 -20.18335664 73.41523492 C-20.22209667 66.64484956 -20.24159348 59.87457216 -20.24687636 53.10407889 C-20.25052532 49.06160707 -20.26249679 45.01956646 -20.2949791 40.97721481 C-20.32513039 37.17020626 -20.33134693 33.36388817 -20.31959534 29.55678558 C-20.31937516 28.16364336 -20.32763387 26.77046846 -20.34524918 25.37743759 C-20.43957718 17.48466031 -20.31045588 11.16390113 -14.73576355 5.15390015 C-9.78897341 1.29540384 -6.19482239 0.03314791 0 0 Z"/>
  <path transform="translate(157,156)" fill="#66A461" d="M0 0 C15.18 0 30.36 0 46 0 C46.0825 6.496875 46.165 12.99375 46.25 19.6875 C46.28641602 21.73026123 46.32283203 23.77302246 46.36035156 25.87768555 C46.37203937 27.50568593 46.38223098 29.13369805 46.390625 30.76171875 C46.41108887 31.59981079 46.43155273 32.43790283 46.45263672 33.3013916 C46.45502029 37.3028173 46.32681702 39.45621928 44.22558594 42.95239258 C39.49219013 47.30726211 35.58890402 47.27578457 29.296875 47.1953125 C28.5538916 47.19329834 27.8109082 47.19128418 27.04541016 47.18920898 C24.28021029 47.17877533 21.5150987 47.15085273 18.75 47.125 C12.5625 47.08375 6.375 47.0425 0 47 C0 31.49 0 15.98 0 0 Z"/>
  <path transform="translate(60.012451171875,48.77294921875)" fill="#F5F5F5" d="M0 0 C0.81174683 0.0002417 1.62349365 0.0004834 2.45983887 0.00073242 C3.30816284 0.01096436 4.15648682 0.02119629 5.03051758 0.03173828 C5.81382446 0.03375244 6.59713135 0.0357666 7.4041748 0.0378418 C10.32785912 0.04829917 13.25145991 0.0762218 16.17504883 0.10205078 C25.98223633 0.16392578 25.98223633 0.16392578 35.98754883 0.22705078 C35.98754883 15.40705078 35.98754883 30.58705078 35.98754883 46.22705078 C20.47754883 46.22705078 4.96754883 46.22705078 -11.01245117 46.22705078 C-11.09495117 40.08080078 -11.17745117 33.93455078 -11.26245117 27.60205078 C-11.29886719 25.67280762 -11.3352832 23.74356445 -11.37280273 21.75585938 C-11.38449431 20.21241364 -11.39468503 18.66895549 -11.40307617 17.12548828 C-11.42354004 16.3356958 -11.44400391 15.54590332 -11.46508789 14.73217773 C-11.46841754 9.42305765 -10.55056985 6.42886622 -7.01245117 2.22705078 C-3.96794917 0.19738278 -3.40968789 -0.02151223 0 0 Z"/>
  <path transform="translate(104,49)" fill="#CFAF3B" d="M0 0 C14.85 0 29.7 0 45 0 C45 15.18 45 30.36 45 46 C30.15 46 15.3 46 0 46 C0 30.82 0 15.64 0 0 Z"/>
  <path transform="translate(104,157)" fill="#6AAA64" d="M0 0 C14.85 0 29.7 0 45 0 C45 14.85 45 29.7 45 45 C30.15 45 15.3 45 0 45 C0 30.15 0 15.3 0 0 Z"/>
  <path transform="translate(50,103)" fill="#FEFEFE" d="M0 0 C14.85 0 29.7 0 45 0 C45 14.85 45 29.7 45 45 C30.15 45 15.3 45 0 45 C0 30.15 0 15.3 0 0 Z"/>
  <path transform="translate(104,103)" fill="#6AAA63" d="M0 0 C14.85 0 29.7 0 45 0 C45 14.85 45 29.7 45 45 C30.15 45 15.3 45 0 45 C0 30.15 0 15.3 0 0 Z"/>
  <path transform="translate(158,103)" fill="#FDFEFD" d="M0 0 C10.3021875 -0.0309375 10.3021875 -0.0309375 20.8125 -0.0625 C22.9778833 -0.071604 25.1432666 -0.08070801 27.37426758 -0.09008789 C29.08935484 -0.09300833 30.80444279 -0.09555659 32.51953125 -0.09765625 C33.41103882 -0.10277222 34.30254639 -0.10788818 35.22106934 -0.11315918 C36.07342163 -0.11328003 36.92577393 -0.11340088 37.80395508 -0.11352539 C38.54341873 -0.115746 39.28288239 -0.11796661 40.04475403 -0.12025452 C42 0 42 0 45 1 C45 15.52 45 30.04 45 45 C30.15 45 15.3 45 0 45 C0 30.15 0 15.3 0 0 Z"/>
  <path transform="translate(50,157)" fill="#6AAA64" d="M0 0 C14.85 0 29.7 0 45 0 C45 14.85 45 29.7 45 45 C38.503125 45.103125 32.00625 45.20625 25.3125 45.3125 C22.24835815 45.38078003 22.24835815 45.38078003 19.12231445 45.45043945 C17.49432007 45.46504915 15.86630737 45.47778869 14.23828125 45.48828125 C12.98114319 45.526651 12.98114319 45.526651 11.6986084 45.5657959 C7.56676558 45.56887248 5.50371748 45.32289582 1.953125 43.046875 C-0.73826177 38.84831164 -0.63743122 35.6484355 -0.48828125 30.76171875 C-0.48324585 29.98042603 -0.47821045 29.1991333 -0.47302246 28.39416504 C-0.44697441 25.49156703 -0.37716681 22.58949448 -0.3125 19.6875 C-0.209375 13.190625 -0.10625 6.69375 0 0 Z"/>
  <path transform="translate(158,49)" fill="#FCFCFC" d="M0 0 C6.166875 -0.061875 12.33375 -0.12375 18.6875 -0.1875 C20.62584717 -0.21481201 22.56419434 -0.24212402 24.5612793 -0.27026367 C26.10725279 -0.27903011 27.65323322 -0.28667368 29.19921875 -0.29296875 C29.9941272 -0.30831665 30.78903564 -0.32366455 31.60803223 -0.33947754 C36.23812887 -0.34165504 39.24938102 -0.01717637 43 3 C45.62178569 6.93267854 45.25172941 10.26577661 45.1953125 14.82421875 C45.19329834 15.58786743 45.19128418 16.35151611 45.18920898 17.13830566 C45.1787531 19.9880983 45.15083047 22.83780525 45.125 25.6875 C45.08375 32.060625 45.0425 38.43375 45 45 C30.15 45 15.3 45 0 45 C0 30.15 0 15.3 0 0 Z"/>
</svg>